<svg width="9" height="17" viewBox="0 0 9 17" fill="none" xmlns="http://www.w3.org/2000/svg">
<path d="M7.97242 0.00369972H5.47117C2.28555 -0.0281753 1.87867 1.94339 1.87867 4.07714V5.6287H0.472423C0.408863 5.62021 0.344201 5.62649 0.28346 5.64704C0.222719 5.6676 0.167534 5.70188 0.122192 5.74722C0.0768486 5.79256 0.0425685 5.84775 0.0220137 5.90849C0.00145892 5.96923 -0.00481727 6.03389 0.00367275 6.09745V8.90995C-0.00481727 8.97351 0.00145892 9.03817 0.0220137 9.09891C0.0425685 9.15965 0.0768486 9.21484 0.122192 9.26018C0.167534 9.30552 0.222719 9.3398 0.28346 9.36036C0.344201 9.38091 0.408863 9.38719 0.472423 9.3787H1.87867V16.41C1.87105 16.4736 1.87803 16.5381 1.89907 16.5987C1.92012 16.6592 1.95468 16.7141 2.00014 16.7593C2.04559 16.8045 2.10074 16.8387 2.16141 16.8594C2.22207 16.8801 2.28665 16.8867 2.35024 16.8787H5.2143C5.49086 16.9106 5.71492 16.6865 5.6268 16.41L5.62867 9.3787H7.97242C8.03598 9.38719 8.10064 9.38091 8.16138 9.36036C8.22213 9.3398 8.27731 9.30552 8.32265 9.26018C8.368 9.21484 8.40228 9.15965 8.42283 9.09891C8.44339 9.03817 8.44966 8.97351 8.44117 8.90995V6.09745C8.44966 6.03389 8.44339 5.96923 8.42283 5.90849C8.40228 5.84775 8.368 5.79256 8.32265 5.74722C8.27731 5.70188 8.22213 5.6676 8.16138 5.64704C8.10064 5.62649 8.03598 5.62021 7.97242 5.6287H5.62586L5.62867 4.22245C5.71961 3.62339 5.71961 3.72089 6.27555 3.7537H7.95273C8.08305 3.72464 8.2218 3.74057 8.3193 3.64589C8.4168 3.5512 8.47305 3.42182 8.44024 3.28495V0.47245C8.44889 0.408941 8.44276 0.344292 8.42232 0.283541C8.40189 0.222791 8.3677 0.16758 8.32242 0.122212C8.27715 0.0768441 8.222 0.0425449 8.16129 0.0219884C8.10058 0.00143181 8.03595 -0.00482692 7.97242 0.00369972ZM7.47086 2.7637L6.29524 2.7187C4.8393 2.7187 4.71742 3.50901 4.71742 4.31807L4.71367 6.09557C4.71355 6.1614 4.72641 6.2266 4.75151 6.28744C4.77662 6.34829 4.81347 6.40359 4.85997 6.45018C4.90647 6.49676 4.9617 6.53372 5.0225 6.55894C5.0833 6.58416 5.14848 6.59714 5.2143 6.59714H7.50367V8.40839H5.21617C5.08331 8.40839 4.95588 8.4611 4.86185 8.55496C4.76781 8.64882 4.71486 8.77615 4.71461 8.90901L4.71367 15.9412H2.81617V8.90995C2.81617 8.63339 2.62774 8.40932 2.35024 8.40932H0.941173V6.59807H2.35024C2.41605 6.59838 2.48126 6.58561 2.5421 6.5605C2.60293 6.5354 2.65817 6.49846 2.70461 6.45183C2.79836 6.35714 2.81523 6.22964 2.81523 6.09651V4.0762C2.81523 1.97432 3.23992 0.973075 5.47023 0.973075H7.46992L7.47086 2.7637Z" fill="black"/>
</svg>
